<svg width="512" height="512" xmlns="http://www.w3.org/2000/svg">
 <title/>

 <g>
  <title>background</title>
  <rect fill="none" id="canvas_background" height="402" width="582" y="-1" x="-1"/>
 </g>
 <g>
  <title>Layer 1</title>
  <path fill="#ffffff" id="svg_1" d="m293.9,450l-60.37,0a15,15 0 0 1 -14.92,-13.42l-4.47,-42.09a152.77,152.77 0 0 1 -18.25,-7.56l-32.89,26.6a15,15 0 0 1 -20,-1.06l-42.69,-42.69a15,15 0 0 1 -1.06,-20l26.61,-32.93a152.15,152.15 0 0 1 -7.57,-18.25l-42.16,-4.5a15,15 0 0 1 -13.42,-14.91l0,-60.38a15,15 0 0 1 13.42,-14.91l42.09,-4.47a152.15,152.15 0 0 1 7.57,-18.25l-26.61,-32.93a15,15 0 0 1 1.06,-20l42.69,-42.69a15,15 0 0 1 20,-1.06l32.93,26.6a152.77,152.77 0 0 1 18.25,-7.56l4.47,-42.09a15,15 0 0 1 14.95,-13.45l60.37,0a15,15 0 0 1 14.92,13.42l4.46,42.09a152.91,152.91 0 0 1 18.26,7.56l32.92,-26.6a15,15 0 0 1 20,1.06l42.69,42.69a15,15 0 0 1 1.06,20l-26.61,32.93a153.8,153.8 0 0 1 7.57,18.25l42.09,4.47a15,15 0 0 1 13.41,14.91l0,60.38a15,15 0 0 1 -13.37,14.94l-42.09,4.47a153.8,153.8 0 0 1 -7.57,18.25l26.61,32.93a15,15 0 0 1 -1.06,20l-42.69,42.72a15,15 0 0 1 -20,1.06l-32.92,-26.6a152.91,152.91 0 0 1 -18.26,7.56l-4.46,42.09a15,15 0 0 1 -14.96,13.42zm-46.9,-30l33.39,0l4.09,-38.56a15,15 0 0 1 11.06,-12.91a123,123 0 0 0 30.16,-12.53a15,15 0 0 1 17,1.31l30.16,24.37l23.61,-23.61l-24.41,-30.07a15,15 0 0 1 -1.31,-17a122.63,122.63 0 0 0 12.49,-30.14a15,15 0 0 1 12.92,-11.06l38.55,-4.1l0,-33.39l-38.55,-4.1a15,15 0 0 1 -12.92,-11.06a122.63,122.63 0 0 0 -12.49,-30.15a15,15 0 0 1 1.31,-17l24.37,-30.16l-23.61,-23.61l-30.16,24.37a15,15 0 0 1 -17,1.31a123,123 0 0 0 -30.14,-12.49a15,15 0 0 1 -11.06,-12.91l-4.05,-38.51l-33.41,0l-4.09,38.56a15,15 0 0 1 -11.07,12.91a122.79,122.79 0 0 0 -30.11,12.53a15,15 0 0 1 -17,-1.31l-30.13,-24.41l-23.6,23.61l24.38,30.16a15,15 0 0 1 1.3,17a123.41,123.41 0 0 0 -12.49,30.14a15,15 0 0 1 -12.91,11.06l-38.56,4.1l0,33.38l38.56,4.1a15,15 0 0 1 12.91,11.06a123.41,123.41 0 0 0 12.48,30.11a15,15 0 0 1 -1.3,17l-24.37,30.11l23.61,23.61l30.17,-24.37a15,15 0 0 1 17,-1.31a122.79,122.79 0 0 0 30.13,12.49a15,15 0 0 1 11.07,12.91l4.02,38.56zm202.71,-140.81l0,0z"/>
  <path fill="#ffffff" id="svg_2" d="m263.71,340.36a91.36,91.36 0 1 1 91.37,-91.36a91.46,91.46 0 0 1 -91.37,91.36zm0,-152.72a61.36,61.36 0 1 0 61.37,61.36a61.43,61.43 0 0 0 -61.37,-61.36z"/>
 </g>
</svg>